<svg width="256" height="160" viewBox="0 0 256 160" fill="none" xmlns="http://www.w3.org/2000/svg">
<path d="M162.38 42.6511C162.38 43.2011 162.29 44.3511 162.29 44.3511H146.01C145.985 41.7669 145.815 39.1862 145.5 36.6211C143.43 24.7411 133.94 16.6911 121.88 16.7111C106.25 16.7111 90.6099 16.8511 74.9699 16.8711C73.8661 16.8157 72.7698 17.0796 71.8121 17.6312C70.8544 18.1827 70.0759 18.9986 69.5699 19.9811C69.0032 20.9936 68.7371 22.1466 68.8026 23.305C68.8681 24.4634 69.2627 25.5791 69.9399 26.5211C71.0318 28.0833 72.5385 29.3094 74.2899 30.0611C78.3799 32.0611 82.4899 33.9811 86.5799 35.9811C87.9399 36.6511 89.2399 37.4511 90.5799 38.2011V79.2011C88.0894 80.8425 85.151 81.6706 82.1699 81.5711C76.3299 81.5711 63.1699 81.5711 51.4199 81.5711C55.4199 74.4011 59.1499 67.5711 60.5099 65.0911H79.1899C80.4016 65.1727 81.6096 64.8847 82.6541 64.2652C83.6986 63.6456 84.5306 62.7236 85.0399 61.6211C86.1999 59.2011 85.5799 56.9311 84.0399 54.8911C82.7891 53.4529 81.2068 52.3409 79.4299 51.6511C74.9099 49.4611 70.3799 47.3911 65.9799 44.9411C61.6932 42.728 57.9555 39.5847 55.0399 35.7411C48.3799 26.4911 49.6299 12.6511 57.7399 5.49113C61.6449 2.01566 66.7025 0.115956 71.9299 0.16113C88.9299 0.16113 105.93 -0.08887 122.98 0.34113C145.63 0.91113 163.52 20.3811 162.38 42.6511Z" fill="url(#paint0_linear_57_93)"/>
<path d="M166.29 44.2115C166.771 38.1582 165.972 32.0714 163.944 26.3476C161.916 20.6238 158.705 15.3915 154.52 10.9915C156.004 8.16136 158.136 5.72271 160.744 3.87511C163.351 2.02752 166.358 0.823466 169.52 0.361491C171.292 0.111899 173.081 0.00156142 174.87 0.0314915H202.58C202.816 -0.013027 203.059 -0.0103199 203.294 0.0394547C203.529 0.0892293 203.752 0.185086 203.95 0.321492C200.88 5.80149 197.81 11.3215 194.8 16.6915C194.225 16.9297 193.597 17.0124 192.98 16.9315C187.36 16.9315 181.74 16.9315 176.12 16.9315C175.08 16.9031 174.05 17.1505 173.137 17.6484C172.223 18.1464 171.457 18.8772 170.916 19.7667C170.376 20.6563 170.081 21.6729 170.061 22.7134C170.04 23.754 170.295 24.7814 170.8 25.6915C171.815 27.5616 173.427 29.0371 175.38 29.8815C179.55 31.9315 183.75 33.8815 187.92 35.9715C190.738 37.3324 193.417 38.9634 195.92 40.8415C203.78 46.7615 206.58 55.6915 203.83 65.9115C201.46 74.5415 193.38 80.6515 184.05 81.3415C182.52 81.4515 180.99 81.4615 179.46 81.4715L142.81 81.6115C142.49 81.6288 142.169 81.5777 141.87 81.4615C149.434 77.8219 155.814 72.1152 160.27 65.0015H180.38C183.13 65.0015 185.3 63.9215 186.38 61.3115C187.46 58.7015 186.7 56.3115 184.8 54.3115C183.52 53.0686 182.021 52.072 180.38 51.3715C176.57 49.5115 172.75 47.6715 168.95 45.8015C167.987 45.4113 167.09 44.875 166.29 44.2115Z" fill="url(#paint1_linear_57_93)"/>
<path d="M161.62 49.2412C160.936 54.1266 159.272 58.8234 156.727 63.0492C154.182 67.2749 150.809 70.9425 146.81 73.8312C137.56 80.8312 127.09 81.5312 115.67 81.5312V66.2612H117.38C120.58 66.1612 123.84 66.6212 127 66.0612C136.08 64.4812 142.07 59.2812 145 50.5512C145.1 50.2312 145.24 49.9012 145.33 49.5512C145.369 49.4567 145.403 49.3599 145.43 49.2612L161.62 49.2412Z" fill="url(#paint2_linear_57_93)"/>
<path d="M110.8 26.3716H94.8999V81.5316H110.8V26.3716Z" fill="url(#paint3_linear_57_93)"/>
<path d="M27.89 126.831C27.9467 127.48 27.9063 128.134 27.77 128.771C27.5174 130.045 26.992 131.249 26.23 132.301C25.4704 133.36 24.4958 134.246 23.37 134.901C21.5231 136.024 19.4627 136.749 17.32 137.031C15.339 137.376 13.3196 137.443 11.32 137.231C7.29418 136.939 3.4042 135.65 0 133.481L3.42 128.381C5.95342 129.976 8.84313 130.918 11.83 131.121C14.6788 131.499 17.5747 130.985 20.12 129.651C20.5209 129.457 20.8746 129.177 21.1561 128.831C21.4376 128.486 21.6403 128.083 21.75 127.651C21.8337 127.226 21.8243 126.788 21.7225 126.367C21.6206 125.945 21.4287 125.551 21.16 125.211C18.8726 123.278 16.2298 121.811 13.38 120.891C9.62801 119.651 6.19388 117.603 3.32 114.891C2.51378 114.014 1.84001 113.023 1.32 111.951C1.09038 111.386 0.893394 110.809 0.73 110.221C0.517548 109.595 0.396305 108.942 0.37 108.281C0.29896 107 0.491244 105.718 0.934985 104.514C1.37873 103.31 2.06451 102.21 2.95 101.281C4.46714 99.6986 6.31422 98.4695 8.36 97.6812C10.4107 96.8923 12.6066 96.5513 14.8 96.6812C18.976 96.6906 23.0375 98.0479 26.38 100.551L22.68 105.451C20.3797 103.712 17.5633 102.793 14.68 102.841C11.52 102.841 9.13667 103.701 7.53 105.421C7.17651 105.782 6.90234 106.214 6.72505 106.687C6.54776 107.16 6.47125 107.665 6.50044 108.17C6.52962 108.674 6.66384 109.167 6.89451 109.617C7.12518 110.067 7.44722 110.463 7.84 110.781C10.1483 112.786 12.8343 114.31 15.74 115.261C19.5682 116.485 23.0623 118.576 25.95 121.371C26.43 122.081 26.79 122.621 27.01 122.991C27.2927 123.605 27.5171 124.245 27.68 124.901C27.868 125.526 27.9392 126.18 27.89 126.831Z" fill="#4F5F43"/>
<path d="M57.4497 96.6514L73.9297 137.391H66.3797L62.2297 127.311H44.8397L40.6897 137.391H33.1797L49.6597 96.6514H57.4497ZM47.3797 121.121H59.7497L53.5597 106.011L47.3797 121.121Z" fill="#4F5F43"/>
<path d="M70.3799 96.6514H102.32V102.791H89.3799V137.371H83.2899V102.761H70.3799V96.6514Z" fill="#4F5F43"/>
<path d="M133.45 96.6514H139.56V137.341H133.45V120.051H113.75V137.341H107.61V96.6514H113.75V113.921H133.45V96.6514Z" fill="#4F5F43"/>
<path d="M150.99 137.341H144.85V96.6514H150.99V137.341Z" fill="#4F5F43"/>
<path d="M185.15 102.761H162.38V113.921H182.38V120.051H162.38V131.201H185.14V137.341H156.24V96.6514H185.14L185.15 102.761Z" fill="#4F5F43"/>
<path d="M218.3 126.831C218.355 127.48 218.318 128.133 218.19 128.771C217.929 130.044 217.401 131.248 216.64 132.301C215.881 133.357 214.91 134.243 213.79 134.901C211.939 136.024 209.875 136.749 207.73 137.031C205.749 137.376 203.729 137.443 201.73 137.231C197.704 136.939 193.814 135.65 190.41 133.481L193.83 128.381C196.363 129.976 199.253 130.918 202.24 131.121C205.075 131.505 207.959 131.005 210.5 129.691C210.903 129.5 211.259 129.221 211.541 128.875C211.823 128.529 212.024 128.125 212.13 127.691C212.213 127.266 212.204 126.828 212.102 126.407C212 125.985 211.808 125.591 211.54 125.251C209.249 123.317 206.603 121.85 203.75 120.931C199.999 119.688 196.566 117.64 193.69 114.931C192.887 114.051 192.213 113.061 191.69 111.991C191.46 111.426 191.263 110.849 191.1 110.261C190.892 109.634 190.771 108.981 190.74 108.321C190.673 107.041 190.868 105.76 191.311 104.557C191.755 103.353 192.438 102.253 193.32 101.321C194.837 99.7386 196.684 98.5095 198.73 97.7213C200.78 96.9323 202.976 96.5914 205.17 96.7213C209.352 96.7191 213.423 98.0657 216.78 100.561L213.07 105.461C210.769 103.722 207.953 102.803 205.07 102.851C201.91 102.851 199.526 103.711 197.92 105.431C197.566 105.792 197.292 106.224 197.115 106.697C196.937 107.17 196.861 107.675 196.89 108.18C196.919 108.684 197.054 109.177 197.284 109.627C197.515 110.077 197.837 110.473 198.23 110.791C200.54 112.798 203.23 114.322 206.14 115.271C209.964 116.497 213.454 118.588 216.34 121.381C216.82 122.091 217.18 122.631 217.4 123.001C217.687 123.614 217.912 124.254 218.07 124.911C218.268 125.531 218.346 126.182 218.3 126.831Z" fill="#4F5F43"/>
<path d="M249.43 96.6514H255.54V137.341H249.43V120.051H229.73V137.341H223.59V96.6514H229.73V113.921H249.43V96.6514Z" fill="#4F5F43"/>
<path d="M63.0801 149.261C63.7389 149.246 64.3934 149.371 65.0003 149.628C65.6071 149.885 66.1524 150.268 66.6001 150.752C67.5017 151.755 68.0005 153.057 68.0005 154.407C68.0005 155.756 67.5017 157.058 66.6001 158.062C66.1524 158.545 65.6071 158.928 65.0003 159.185C64.3934 159.442 63.7389 159.567 63.0801 159.551H59.0801V149.261H63.0801ZM63.0801 157.931C63.5241 157.948 63.9663 157.866 64.3757 157.694C64.785 157.521 65.1517 157.261 65.4501 156.931C66.0441 156.222 66.3697 155.327 66.3697 154.401C66.3697 153.476 66.0441 152.581 65.4501 151.871C65.1505 151.544 64.7835 151.285 64.3745 151.112C63.9654 150.94 63.5239 150.858 63.0801 150.871H60.7301V157.922L63.0801 157.931Z" fill="#4F5F43"/>
<path d="M73.8799 157.931H78.4299V159.551H72.1899V149.261H78.3799V150.881H73.8799V153.551H77.9899V155.161H73.8799V157.931Z" fill="#4F5F43"/>
<path d="M86.0401 159.741C85.1518 159.765 84.2759 159.529 83.5201 159.061C82.8411 158.629 82.3324 157.976 82.0801 157.211L83.5301 156.361C83.6949 156.899 84.0388 157.364 84.5046 157.678C84.9704 157.993 85.5299 158.139 86.0901 158.091C86.5946 158.13 87.0977 158 87.5201 157.721C87.6766 157.607 87.8023 157.456 87.8861 157.282C87.9699 157.107 88.0091 156.915 88.0001 156.721C88.0162 156.523 87.976 156.323 87.884 156.146C87.792 155.97 87.652 155.822 87.4801 155.721C86.9069 155.402 86.2953 155.156 85.6601 154.991L84.4801 154.651C84.1259 154.521 83.7898 154.347 83.4801 154.131C83.1564 153.92 82.8943 153.627 82.7201 153.281C82.5499 152.901 82.4646 152.488 82.4701 152.071C82.4591 151.657 82.5436 151.246 82.717 150.87C82.8904 150.493 83.1481 150.162 83.4701 149.901C84.1307 149.366 84.96 149.082 85.8101 149.101C86.5653 149.079 87.3101 149.283 87.9482 149.687C88.5864 150.092 89.0886 150.678 89.3901 151.371L87.9701 152.191C87.808 151.754 87.5118 151.379 87.1238 151.121C86.7358 150.862 86.276 150.733 85.8101 150.751C85.3898 150.729 84.9743 150.849 84.6301 151.091C84.4876 151.202 84.3734 151.345 84.2969 151.508C84.2204 151.672 84.1838 151.851 84.1901 152.031C84.1824 152.204 84.2199 152.377 84.2988 152.531C84.3776 152.685 84.4953 152.816 84.6401 152.911C85.148 153.222 85.7013 153.452 86.2801 153.591L87.1201 153.911L87.8901 154.201C88.1587 154.296 88.4116 154.431 88.6401 154.601C88.8268 154.764 89.0038 154.938 89.1701 155.121C89.3543 155.326 89.4909 155.568 89.5701 155.831C89.6532 156.127 89.6936 156.434 89.6901 156.741C89.7081 157.162 89.627 157.582 89.4533 157.965C89.2796 158.349 89.0182 158.687 88.6901 158.951C87.9288 159.521 86.9892 159.801 86.0401 159.741Z" fill="#4F5F43"/>
<path d="M93.7099 149.261H95.3799V159.551H93.6899L93.7099 149.261Z" fill="#4F5F43"/>
<path d="M110.11 154.231V154.931C110.135 155.574 110.023 156.215 109.782 156.812C109.54 157.408 109.175 157.947 108.71 158.391C108.224 158.848 107.651 159.202 107.026 159.434C106.401 159.666 105.736 159.77 105.07 159.741C104.344 159.766 103.621 159.643 102.946 159.378C102.27 159.113 101.655 158.713 101.14 158.201C100.384 157.452 99.8697 156.493 99.6628 155.449C99.456 154.404 99.5659 153.322 99.9787 152.341C100.391 151.359 101.088 150.524 101.979 149.941C102.87 149.359 103.915 149.056 104.98 149.071C105.899 149.061 106.805 149.288 107.61 149.731C108.377 150.146 109.016 150.761 109.46 151.511L108.01 152.351C107.725 151.849 107.302 151.439 106.79 151.171C106.236 150.867 105.612 150.712 104.98 150.721C104.49 150.706 104.002 150.791 103.546 150.972C103.09 151.152 102.676 151.424 102.33 151.771C101.983 152.118 101.711 152.532 101.53 152.988C101.35 153.443 101.265 153.931 101.28 154.421C101.258 154.905 101.335 155.388 101.507 155.84C101.679 156.292 101.942 156.705 102.28 157.051C102.648 157.396 103.083 157.662 103.557 157.834C104.032 158.006 104.536 158.08 105.04 158.051C105.83 158.088 106.611 157.864 107.26 157.411C107.827 156.999 108.219 156.389 108.36 155.701H104.92V154.191L110.11 154.231Z" fill="#4F5F43"/>
<path d="M120.47 149.261H122.16V159.551H120.84L115.99 152.551V159.551H114.3V149.261H115.59L120.47 156.261V149.261Z" fill="#4F5F43"/>
<path d="M136.6 159.741C135.711 159.767 134.835 159.531 134.08 159.061C133.401 158.627 132.89 157.974 132.63 157.211L134.09 156.361C134.253 156.9 134.597 157.366 135.063 157.681C135.529 157.996 136.089 158.141 136.65 158.091C137.154 158.129 137.657 157.999 138.08 157.721C138.236 157.607 138.362 157.456 138.446 157.282C138.53 157.107 138.569 156.915 138.56 156.721C138.574 156.523 138.532 156.325 138.441 156.148C138.349 155.972 138.21 155.824 138.04 155.721C137.467 155.402 136.855 155.156 136.22 154.991L135.04 154.551C134.685 154.424 134.348 154.249 134.04 154.031C133.716 153.82 133.454 153.527 133.28 153.181C133.105 152.802 133.02 152.389 133.03 151.971C133.017 151.557 133.1 151.145 133.274 150.768C133.447 150.392 133.706 150.061 134.03 149.801C134.691 149.266 135.52 148.982 136.37 149.001C137.133 148.986 137.884 149.194 138.53 149.601C139.149 150.015 139.641 150.593 139.95 151.271L138.53 152.091C138.366 151.655 138.07 151.281 137.682 151.023C137.295 150.764 136.835 150.634 136.37 150.651C135.949 150.628 135.533 150.748 135.19 150.991C135.047 151.102 134.933 151.245 134.857 151.408C134.78 151.572 134.744 151.751 134.75 151.931C134.742 152.104 134.78 152.277 134.859 152.431C134.937 152.585 135.055 152.716 135.2 152.811C135.705 153.121 136.255 153.35 136.83 153.491L137.68 153.811L138.45 154.101C138.719 154.196 138.971 154.331 139.2 154.501C139.387 154.664 139.564 154.838 139.73 155.021C139.914 155.226 140.051 155.468 140.13 155.731C140.213 156.027 140.253 156.334 140.25 156.641C140.268 157.062 140.187 157.482 140.013 157.865C139.839 158.249 139.578 158.587 139.25 158.851C138.502 159.457 137.562 159.773 136.6 159.741Z" fill="#4F5F43"/>
<path d="M150.66 149.261V150.881H147.77V159.551H146.08V150.881H143.17V149.261H150.66Z" fill="#4F5F43"/>
<path d="M161.15 158.761C160.353 159.396 159.364 159.742 158.345 159.742C157.326 159.742 156.337 159.396 155.54 158.761C155.176 158.432 154.889 158.027 154.701 157.574C154.512 157.121 154.427 156.631 154.45 156.141V149.261H156.14V156.041C156.119 156.594 156.316 157.133 156.69 157.541C157.168 157.898 157.749 158.09 158.345 158.09C158.941 158.09 159.522 157.898 160 157.541C160.187 157.34 160.332 157.104 160.426 156.847C160.521 156.589 160.563 156.315 160.55 156.041V149.261H162.24V156.141C162.263 156.631 162.177 157.121 161.989 157.574C161.801 158.027 161.514 158.432 161.15 158.761Z" fill="#4F5F43"/>
<path d="M170.86 149.262C171.519 149.246 172.173 149.37 172.78 149.627C173.387 149.884 173.933 150.267 174.38 150.752C175.288 151.752 175.791 153.055 175.791 154.407C175.791 155.758 175.288 157.061 174.38 158.062C173.933 158.546 173.387 158.929 172.78 159.186C172.173 159.443 171.519 159.567 170.86 159.552H166.86V149.262H170.86ZM170.86 157.932C171.305 157.946 171.748 157.865 172.159 157.692C172.57 157.519 172.939 157.26 173.24 156.932C173.834 156.222 174.159 155.327 174.159 154.402C174.159 153.476 173.834 152.581 173.24 151.872C172.937 151.545 172.569 151.286 172.158 151.114C171.748 150.941 171.305 150.859 170.86 150.872H168.51V157.922L170.86 157.932Z" fill="#4F5F43"/>
<path d="M179.97 149.261H181.66V159.551H179.97V149.261Z" fill="#4F5F43"/>
<path d="M194.97 158.191C194.092 159.084 192.932 159.643 191.687 159.775C190.443 159.907 189.191 159.602 188.146 158.913C187.102 158.223 186.329 157.193 185.96 155.997C185.591 154.801 185.649 153.514 186.123 152.356C186.598 151.198 187.461 150.241 188.563 149.649C189.665 149.056 190.939 148.865 192.167 149.107C193.395 149.35 194.5 150.012 195.294 150.979C196.088 151.947 196.521 153.16 196.52 154.411C196.531 155.114 196.4 155.811 196.133 156.461C195.867 157.11 195.471 157.699 194.97 158.191ZM188.59 157.041C189.286 157.715 190.216 158.092 191.185 158.092C192.153 158.092 193.084 157.715 193.78 157.041C194.454 156.33 194.83 155.387 194.83 154.406C194.83 153.426 194.454 152.483 193.78 151.771C193.084 151.098 192.153 150.721 191.185 150.721C190.216 150.721 189.286 151.098 188.59 151.771C187.915 152.483 187.539 153.426 187.539 154.406C187.539 155.387 187.915 156.33 188.59 157.041Z" fill="#4F5F43"/>
<path d="M53.1998 153.521H0.0297852V155.291H53.1998V153.521Z" fill="#4F5F43"/>
<path d="M255.54 153.521H202.36V155.291H255.54V153.521Z" fill="#4F5F43"/>
<defs>
<linearGradient id="paint0_linear_57_93" x1="105.92" y1="-11.6589" x2="108.79" y2="192.011" gradientUnits="userSpaceOnUse">
<stop stop-color="#E28E25"/>
<stop offset="0.97" stop-color="#FCE559"/>
</linearGradient>
<linearGradient id="paint1_linear_57_93" x1="172.18" y1="-12.5885" x2="175.05" y2="191.081" gradientUnits="userSpaceOnUse">
<stop stop-color="#E28E25"/>
<stop offset="0.97" stop-color="#FCE559"/>
</linearGradient>
<linearGradient id="paint2_linear_57_93" x1="137.55" y1="-12.1088" x2="140.42" y2="191.571" gradientUnits="userSpaceOnUse">
<stop stop-color="#E28E25"/>
<stop offset="0.97" stop-color="#FCE559"/>
</linearGradient>
<linearGradient id="paint3_linear_57_93" x1="101.92" y1="-11.5984" x2="104.79" y2="192.072" gradientUnits="userSpaceOnUse">
<stop stop-color="#E28E25"/>
<stop offset="0.97" stop-color="#FCE559"/>
</linearGradient>
</defs>
</svg>
